<svg xmlns="http://www.w3.org/2000/svg" width="245" height="41" fill="none"><g fill="#000" clip-path="url(#a)"><path d="M214.475 32.931v-20.41h5.349v3.633h.256c.426-1.205 1.137-2.154 2.135-2.848.998-.693 2.185-1.04 3.56-1.04 1.4 0 2.587.353 3.56 1.059.986.693 1.643 1.636 1.972 2.83h.219c.414-1.181 1.168-2.125 2.264-2.83 1.095-.706 2.385-1.06 3.87-1.06 1.898 0 3.444.603 4.637 1.808 1.205 1.205 1.807 2.915 1.807 5.13V32.93h-5.659V20.335c0-1.144-.304-1.996-.913-2.556-.596-.56-1.345-.84-2.245-.84-1.023 0-1.826.329-2.41.986-.572.645-.858 1.497-.858 2.556v12.45h-5.477V20.19c0-.986-.286-1.771-.858-2.355-.572-.597-1.32-.895-2.245-.895-.633 0-1.199.158-1.698.475a3.358 3.358 0 0 0-1.187 1.314c-.292.548-.438 1.205-.438 1.972V32.93h-5.641Zm-8.047-8.671V12.521h5.641v20.41h-5.422v-3.705h-.219a6.231 6.231 0 0 1-2.282 2.884c-1.059.73-2.355 1.09-3.888 1.077-1.364 0-2.568-.304-3.615-.913-1.035-.62-1.844-1.503-2.428-2.647-.572-1.144-.858-2.513-.858-4.107V12.522h5.641v12.012c0 1.193.322 2.142.968 2.848.645.693 1.503 1.034 2.574 1.022a4.05 4.05 0 0 0 1.898-.456c.584-.317 1.059-.785 1.424-1.406.377-.62.566-1.381.566-2.282Zm-14.984-5.915-5.167.31c-.134-.645-.493-1.199-1.077-1.661-.584-.475-1.369-.712-2.355-.712-.876 0-1.612.183-2.209.548-.584.365-.876.852-.876 1.46 0 .487.189.907.566 1.26.389.34 1.053.608 1.99.803l3.706.73c1.984.402 3.462 1.053 4.436 1.954.974.9 1.46 2.087 1.46 3.56 0 1.35-.389 2.53-1.168 3.541-.779.998-1.85 1.783-3.213 2.355-1.363.56-2.927.84-4.692.84-2.702 0-4.856-.566-6.462-1.698-1.595-1.132-2.526-2.665-2.793-4.6l5.531-.293c.183.828.596 1.455 1.241 1.88.646.427 1.473.64 2.483.64.986 0 1.783-.195 2.392-.585.62-.389.931-.882.931-1.478 0-1.01-.876-1.692-2.629-2.045l-3.523-.73c-1.984-.402-3.463-1.09-4.437-2.063-.973-.974-1.46-2.221-1.46-3.742 0-1.315.359-2.447 1.077-3.396.718-.95 1.722-1.68 3.012-2.19 1.303-.512 2.824-.767 4.564-.767 2.58 0 4.607.547 6.079 1.643 1.485 1.083 2.349 2.562 2.593 4.436Zm-38.352 22.217v-28.04h5.55v3.45h.255a7.688 7.688 0 0 1 1.096-1.698c.474-.572 1.095-1.047 1.862-1.424.767-.39 1.716-.584 2.848-.584a7.58 7.58 0 0 1 4.107 1.168c1.254.767 2.258 1.929 3.012 3.487.755 1.558 1.132 3.505 1.132 5.842 0 2.263-.365 4.18-1.095 5.75-.73 1.558-1.722 2.739-2.976 3.542-1.241.803-2.641 1.205-4.199 1.205-1.095 0-2.026-.183-2.793-.548-.766-.365-1.393-.821-1.88-1.37a7.87 7.87 0 0 1-1.114-1.679h-.164v10.899h-5.641Zm9.803-11.793c.925 0 1.704-.256 2.337-.767.633-.511 1.114-1.217 1.442-2.118.329-.912.493-1.959.493-3.14 0-1.18-.164-2.215-.493-3.103-.316-.9-.791-1.606-1.424-2.118-.633-.51-1.418-.766-2.355-.766-.912 0-1.691.249-2.336.748-.633.487-1.12 1.18-1.461 2.081-.328.889-.493 1.941-.493 3.158 0 1.205.171 2.258.511 3.159.341.9.828 1.606 1.461 2.117.645.5 1.418.749 2.318.749Zm-17.849 4.161V12.52h5.641v20.41h-5.641Zm2.811-23.02c-.84 0-1.558-.28-2.154-.84-.596-.56-.894-1.235-.894-2.026 0-.79.298-1.46.894-2.008.596-.56 1.314-.84 2.154-.84.852 0 1.576.28 2.173.84.596.548.894 1.217.894 2.008 0 .791-.298 1.467-.894 2.027-.597.56-1.321.84-2.173.84Zm-14.419 23.423c-2.057 0-3.84-.438-5.349-1.315-1.497-.888-2.653-2.117-3.469-3.687-.803-1.582-1.204-3.42-1.204-5.514 0-2.117.401-3.961 1.204-5.531.816-1.582 1.972-2.811 3.469-3.688 1.509-.888 3.292-1.332 5.349-1.332 2.069 0 3.852.444 5.349 1.332 1.509.877 2.665 2.106 3.468 3.688.816 1.57 1.224 3.414 1.224 5.531 0 2.094-.408 3.931-1.224 5.514a8.889 8.889 0 0 1-3.468 3.687c-1.497.877-3.28 1.315-5.349 1.315Zm.036-4.418c.938 0 1.723-.262 2.355-.785.633-.536 1.108-1.266 1.424-2.19.329-.926.493-1.979.493-3.16 0-1.192-.164-2.245-.493-3.157-.316-.913-.791-1.631-1.424-2.155-.632-.523-1.417-.785-2.355-.785-.949 0-1.746.262-2.391.785-.633.524-1.114 1.242-1.442 2.155-.317.912-.475 1.965-.475 3.158 0 1.18.158 2.233.475 3.158.328.925.809 1.655 1.442 2.19.645.524 1.442.786 2.391.786ZM111.9 41c-2.751 0-4.905-.547-6.463-1.643-1.558-1.083-2.507-2.434-2.848-4.053l5.222-.693c.158.414.407.797.748 1.15.341.353.797.633 1.369.84.572.219 1.272.328 2.1.328 1.229 0 2.245-.298 3.048-.894.804-.585 1.205-1.576 1.205-2.976v-3.742h-.237c-.244.56-.615 1.095-1.114 1.606-.499.511-1.138.925-1.917 1.241-.779.317-1.71.475-2.793.475-1.533 0-2.927-.353-4.18-1.059-1.242-.718-2.24-1.813-2.994-3.286-.743-1.473-1.114-3.335-1.114-5.586 0-2.325.377-4.26 1.132-5.805.767-1.546 1.777-2.702 3.03-3.469a7.668 7.668 0 0 1 4.126-1.168c1.144 0 2.1.194 2.866.584.779.377 1.412.852 1.899 1.424.487.572.852 1.138 1.095 1.698h.219v-3.45h5.568V33.15c0 1.728-.426 3.177-1.277 4.345-.852 1.168-2.027 2.045-3.524 2.629-1.497.584-3.219.876-5.166.876Zm.109-12.614c1.363 0 2.416-.506 3.159-1.516.754-1.01 1.131-2.41 1.131-4.199 0-1.192-.17-2.227-.511-3.103-.328-.889-.809-1.576-1.442-2.063-.633-.499-1.412-.748-2.337-.748-.925 0-1.71.255-2.355.766-.633.5-1.113 1.193-1.442 2.081-.328.889-.493 1.911-.493 3.067 0 1.169.165 2.185.493 3.05.329.851.809 1.508 1.442 1.97.645.463 1.43.695 2.355.695Zm-20.844 4.947c-2.057 0-3.84-.438-5.349-1.315-1.497-.888-2.653-2.117-3.469-3.687-.803-1.582-1.204-3.42-1.204-5.514 0-2.117.401-3.961 1.204-5.531.816-1.582 1.972-2.811 3.47-3.688 1.508-.888 3.291-1.332 5.348-1.332 2.069 0 3.852.444 5.349 1.332 1.51.877 2.665 2.106 3.469 3.688.815 1.57 1.223 3.414 1.223 5.531 0 2.094-.408 3.931-1.223 5.514a8.892 8.892 0 0 1-3.469 3.687c-1.497.877-3.28 1.315-5.349 1.315Zm.036-4.418c.938 0 1.723-.262 2.356-.785.632-.536 1.107-1.266 1.424-2.19.328-.926.492-1.979.492-3.16 0-1.192-.164-2.245-.492-3.157-.317-.913-.792-1.631-1.424-2.155-.633-.523-1.418-.785-2.356-.785-.949 0-1.746.262-2.391.785-.633.524-1.114 1.242-1.442 2.155-.317.912-.475 1.965-.475 3.158 0 1.18.158 2.233.475 3.158.328.925.81 1.655 1.442 2.19.645.524 1.442.786 2.391.786ZM63 32.93V5.73h5.732v22.454h11.666v4.747H63ZM37.395 40C43.827 39.869 49 34.607 49 28.139c0-3.146-1.249-6.163-3.472-8.387L25.79 0v12.277c0 2.053.815 4.022 2.266 5.474l4.623 4.627.013.013 7.753 7.758a.645.645 0 0 1-.912.912l-2.672-2.674H12.139l-2.672 2.674a.644.644 0 1 1-.912-.912l7.753-7.758.012-.013 4.624-4.627a7.744 7.744 0 0 0 2.267-5.474V0L3.47 19.752A11.865 11.865 0 0 0 0 28.139C0 34.607 5.173 39.869 11.605 40h25.79Z"/></g><defs><clipPath id="a"><path fill="#fff" d="M0 0h245v41H0z"/></clipPath></defs></svg>