<svg xmlns="http://www.w3.org/2000/svg" width="222" height="40" fill="none"><g fill="#000" clip-path="url(#a)"><path fill-rule="evenodd" d="M20 0c7.477 0 11.215 0 14 1.607A12.002 12.002 0 0 1 38.393 6C40 8.785 40 12.523 40 20s0 11.215-1.607 14A12.002 12.002 0 0 1 34 38.393C31.215 40 27.477 40 20 40S8.785 40 6 38.393A12.002 12.002 0 0 1 1.607 34C0 31.215 0 27.477 0 20S0 8.785 1.607 6A12.001 12.001 0 0 1 6 1.607C8.785 0 12.523 0 20 0Zm2 4C13.163 4 6 11.163 6 20s7.163 16 16 16 16-7.163 16-16S30.837 4 22 4Z" clip-rule="evenodd"/><path d="M36 20c0 5.523-4.477 10-10 10s-10-4.477-10-10 4.477-10 10-10 10 4.477 10 10Zm178.533-8.741c2.236 0 4.034.686 5.393 2.06 1.381 1.351 2.072 3.248 2.072 5.689v10.626h-4.604V19.63c0-1.417-.362-2.496-1.085-3.237-.724-.763-1.711-1.144-2.96-1.144-1.25 0-2.248.381-2.993 1.144-.724.741-1.085 1.82-1.085 3.237v10.005h-4.605V19.63c0-1.417-.361-2.496-1.085-3.237-.723-.763-1.71-1.144-2.96-1.144-1.271 0-2.28.381-3.025 1.144-.724.741-1.086 1.82-1.086 3.237v10.005h-4.604V11.52h4.604v2.191a6.155 6.155 0 0 1 2.27-1.798c.942-.436 1.973-.654 3.091-.654 1.425 0 2.697.305 3.815.915a6.218 6.218 0 0 1 2.598 2.55c.592-1.046 1.447-1.885 2.565-2.517a7.475 7.475 0 0 1 3.684-.948Zm-26.017.261v18.114h-4.637v-2.289c-.592.785-1.37 1.406-2.335 1.864-.942.436-1.973.654-3.091.654-1.425 0-2.686-.294-3.782-.883-1.096-.61-1.962-1.493-2.598-2.648-.614-1.177-.921-2.573-.921-4.186V11.52h4.604v9.973c0 1.438.362 2.55 1.085 3.335.724.763 1.711 1.144 2.96 1.144 1.272 0 2.27-.381 2.993-1.144.724-.785 1.085-1.897 1.085-3.335V11.52h4.637Zm-26.998 18.409c-1.491 0-2.829-.262-4.013-.785-1.184-.545-2.126-1.275-2.828-2.19a5.554 5.554 0 0 1-1.118-3.042h4.637c.088.698.428 1.276 1.019 1.733.614.458 1.371.687 2.27.687.877 0 1.556-.174 2.039-.523.504-.349.756-.796.756-1.34 0-.59-.307-1.025-.921-1.309-.592-.305-1.545-.632-2.861-.98-1.359-.328-2.477-.665-3.354-1.014a5.966 5.966 0 0 1-2.237-1.602c-.614-.72-.921-1.69-.921-2.91 0-1.003.285-1.918.856-2.747.591-.828 1.425-1.482 2.499-1.962 1.096-.48 2.379-.719 3.848-.719 2.17 0 3.902.545 5.196 1.635 1.293 1.068 2.006 2.518 2.138 4.349h-4.407c-.066-.72-.373-1.287-.921-1.7-.526-.437-1.239-.655-2.138-.655-.833 0-1.48.153-1.94.458-.439.305-.658.73-.658 1.275 0 .61.307 1.08.921 1.406.614.305 1.568.622 2.861.948 1.316.328 2.401.665 3.256 1.014s1.59.894 2.203 1.635c.636.72.965 1.678.987 2.877a4.717 4.717 0 0 1-.888 2.812c-.57.828-1.403 1.482-2.499 1.962-1.075.458-2.335.687-3.782.687Zm-23.504-15.793c.592-.828 1.403-1.515 2.434-2.06 1.052-.567 2.247-.85 3.584-.85 1.557 0 2.96.381 4.21 1.144 1.271.763 2.269 1.853 2.993 3.27.745 1.395 1.118 3.02 1.118 4.872 0 1.853-.373 3.498-1.118 4.937-.724 1.417-1.722 2.518-2.993 3.303-1.25.784-2.653 1.177-4.21 1.177-1.337 0-2.521-.273-3.552-.818-1.008-.545-1.83-1.231-2.466-2.06v11.215h-4.604V11.52h4.604v2.616Zm9.636 6.376c0-1.09-.23-2.027-.691-2.812-.438-.806-1.03-1.417-1.776-1.831a4.681 4.681 0 0 0-2.368-.621c-.833 0-1.622.218-2.367.654-.724.414-1.316 1.024-1.776 1.83-.439.807-.658 1.756-.658 2.845 0 1.09.219 2.038.658 2.845.46.806 1.052 1.428 1.776 1.864a4.799 4.799 0 0 0 2.367.62 4.5 4.5 0 0 0 2.368-.653c.746-.436 1.338-1.057 1.776-1.864.461-.806.691-1.765.691-2.877Zm-19.907-11.15c-.812 0-1.491-.25-2.039-.752-.527-.523-.79-1.166-.79-1.929 0-.763.263-1.395.79-1.896.548-.523 1.227-.785 2.039-.785.811 0 1.48.262 2.006.785.548.501.822 1.133.822 1.896 0 .763-.274 1.406-.822 1.93-.526.5-1.195.751-2.006.751Zm2.269 2.158v18.114h-4.604V11.52h4.604Zm-16.337 18.409c-1.754 0-3.333-.382-4.736-1.145a8.619 8.619 0 0 1-3.322-3.302c-.789-1.417-1.183-3.052-1.183-4.905 0-1.853.405-3.487 1.216-4.904a8.553 8.553 0 0 1 3.388-3.27c1.425-.785 3.014-1.177 4.768-1.177s3.344.392 4.769 1.177a8.331 8.331 0 0 1 3.355 3.27c.833 1.417 1.249 3.051 1.249 4.904 0 1.853-.427 3.488-1.282 4.905a8.718 8.718 0 0 1-3.421 3.302c-1.425.763-3.025 1.145-4.801 1.145Zm0-3.99c.833 0 1.611-.195 2.335-.588.745-.414 1.337-1.024 1.776-1.83.438-.807.658-1.788.658-2.944 0-1.722-.461-3.04-1.382-3.956-.899-.937-2.006-1.406-3.321-1.406-1.316 0-2.423.469-3.322 1.406-.877.916-1.315 2.234-1.315 3.956s.427 3.052 1.282 3.99c.877.915 1.973 1.373 3.289 1.373Zm-19.82 3.99c-1.754 0-3.333-.382-4.736-1.145a8.612 8.612 0 0 1-3.322-3.302c-.79-1.417-1.184-3.052-1.184-4.905 0-1.853.406-3.487 1.217-4.904a8.546 8.546 0 0 1 3.388-3.27c1.425-.785 3.014-1.177 4.768-1.177s3.344.392 4.769 1.177a8.33 8.33 0 0 1 3.355 3.27c.833 1.417 1.249 3.051 1.249 4.904 0 1.853-.427 3.488-1.282 4.905a8.719 8.719 0 0 1-3.42 3.302c-1.426.763-3.026 1.145-4.802 1.145Zm0-3.99c.833 0 1.611-.195 2.335-.588.745-.414 1.337-1.024 1.776-1.83.438-.807.657-1.788.657-2.944 0-1.722-.46-3.04-1.381-3.956-.899-.937-2.006-1.406-3.322-1.406-1.315 0-2.422.469-3.321 1.406-.877.916-1.316 2.234-1.316 3.956s.428 3.052 1.283 3.99c.877.915 1.973 1.373 3.289 1.373Zm-19.821 3.99c-1.754 0-3.332-.382-4.735-1.145a8.61 8.61 0 0 1-3.322-3.302c-.79-1.417-1.184-3.052-1.184-4.905 0-1.853.406-3.487 1.217-4.904a8.545 8.545 0 0 1 3.387-3.27c1.425-.785 3.015-1.177 4.769-1.177s3.343.392 4.769 1.177a8.324 8.324 0 0 1 3.354 3.27c.833 1.417 1.25 3.051 1.25 4.904 0 1.853-.428 3.488-1.283 4.905a8.718 8.718 0 0 1-3.42 3.302c-1.425.763-3.026 1.145-4.802 1.145Zm0-3.99c.834 0 1.612-.195 2.335-.588.746-.414 1.338-1.024 1.776-1.83.439-.807.658-1.788.658-2.944 0-1.722-.46-3.04-1.381-3.956-.9-.937-2.006-1.406-3.322-1.406-1.315 0-2.423.469-3.322 1.406-.877.916-1.315 2.234-1.315 3.956s.428 3.052 1.283 3.99c.877.915 1.973 1.373 3.288 1.373Zm-17.43.066h7.564v3.63H52V6.811h4.604v19.193Z"/><path d="M98.323 30.69a10.9 10.9 0 0 0 1.089-.509l.007-.004a10.294 10.294 0 0 0 3.792-3.502v3.595c-.102 4.839-4.063 8.73-8.935 8.73h-.49c-4.871 0-8.832-3.891-8.934-8.73h4.847a4.089 4.089 0 0 0 4.087 3.893h.49a4.09 4.09 0 0 0 4.047-3.474Z"/></g><defs><clipPath id="a"><path fill="#fff" d="M0 0h222v40H0z"/></clipPath></defs></svg>